<svg xmlns="http://www.w3.org/2000/svg" xmlns:xlink="http://www.w3.org/1999/xlink" viewBox="0 0 32.82 31.35"><defs><style>.cls-1{fill:url(#Безымянный_градиент_10);}.cls-2{fill:#c3996c;}.cls-3{fill:url(#Безымянный_градиент_10-2);}.cls-4{fill:url(#Безымянный_градиент_10-3);}.cls-5{fill:url(#Безымянный_градиент_10-4);}.cls-6{fill:#eb1e79;}.cls-7{fill:url(#Безымянный_градиент_12);}.cls-8{fill:url(#Безымянный_градиент_12-2);}</style><linearGradient id="Безымянный_градиент_10" x1="-86.67" y1="1499.18" x2="-70.55" y2="1499.18" gradientTransform="matrix(-0.95, 0.3, 0.3, 0.95, -498.03, -1396.51)" gradientUnits="userSpaceOnUse"><stop offset="0" stop-color="#fff"/><stop offset="1"/></linearGradient><linearGradient id="Безымянный_градиент_10-2" x1="348.95" y1="790.18" x2="355.58" y2="790.18" gradientTransform="matrix(0.71, 0.7, 0.7, -0.71, -781.64, 327.53)" xlink:href="#Безымянный_градиент_10"/><linearGradient id="Безымянный_градиент_10-3" x1="348.48" y1="782.19" x2="355.82" y2="782.19" gradientTransform="matrix(0.71, 0.7, 0.7, -0.71, -781.64, 327.53)" xlink:href="#Безымянный_градиент_10"/><linearGradient id="Безымянный_градиент_10-4" x1="348.69" y1="783.5" x2="355.68" y2="783.5" gradientTransform="matrix(0.71, 0.7, 0.7, -0.71, -781.64, 327.53)" xlink:href="#Безымянный_градиент_10"/><linearGradient id="Безымянный_градиент_12" x1="348.35" y1="770.21" x2="355.84" y2="770.21" gradientTransform="matrix(0.71, 0.7, 0.7, -0.71, -781.64, 327.53)" gradientUnits="userSpaceOnUse"><stop offset="0" stop-color="#fff"/><stop offset="0.13" stop-color="#fbfbfb" stop-opacity="0.93"/><stop offset="0.26" stop-color="#f0f0f0" stop-opacity="0.87"/><stop offset="0.38" stop-color="#ddd" stop-opacity="0.81"/><stop offset="0.51" stop-color="#c2c2c2" stop-opacity="0.75"/><stop offset="0.63" stop-color="#9f9f9f" stop-opacity="0.69"/><stop offset="0.75" stop-color="#757575" stop-opacity="0.63"/><stop offset="0.87" stop-color="#434343" stop-opacity="0.57"/><stop offset="0.98" stop-color="#0a0a0a" stop-opacity="0.51"/><stop offset="1" stop-opacity="0.5"/></linearGradient><linearGradient id="Безымянный_градиент_12-2" x1="350.15" y1="799.75" x2="355.62" y2="799.75" xlink:href="#Безымянный_градиент_12"/></defs><title>Ресурс 10</title><g id="Слой_2" data-name="Слой 2"><g id="Layer_1" data-name="Layer 1"><path class="cls-1" d="M19.58,18.38,28.79,7.07,26.36,4.69,13.89,13.46a24.28,24.28,0,0,0,2.23,2.88A21.25,21.25,0,0,0,19.58,18.38Z"/><path class="cls-2" d="M13.9,13.46,0,31.35l19.58-13a20,20,0,0,1-3.2-2.08A19.17,19.17,0,0,1,13.9,13.46Z"/><path class="cls-3" d="M28.71,7.16a7.09,7.09,0,0,1-1.53-.94c-.76-.69-.5-1.12-.81-1.53l-9.75,6.86a9.54,9.54,0,0,0,2.11,2.55A13.67,13.67,0,0,0,21.56,16Z"/><path class="cls-4" d="M17.34,15.47a12.09,12.09,0,0,1-2.29-2.81l-.58.41a12.94,12.94,0,0,0,2.39,2.84A18.24,18.24,0,0,0,19.91,18l.37-.56A16.1,16.1,0,0,1,17.34,15.47Z"/><path class="cls-5" d="M18.29,14.57a10.79,10.79,0,0,1-2.19-2.68l-.55.37A10.67,10.67,0,0,0,17.82,15a15.68,15.68,0,0,0,2.89,2l.44-.52A13.91,13.91,0,0,1,18.29,14.57Z"/><path class="cls-6" d="M30.49,6.91A2.74,2.74,0,0,1,27,6.45c-1.12-1-1.29-3.1-.17-3.48a25.13,25.13,0,0,0,6-3S32.79,4.93,30.49,6.91Z"/><path class="cls-7" d="M13.92,13.44,0,31.35l19.58-13a20,20,0,0,1-3.2-2.08A18.06,18.06,0,0,1,13.92,13.44Z"/><path class="cls-8" d="M30.49,6.91A2.74,2.74,0,0,1,27,6.45c-1.12-1-1.29-3.1-.17-3.48a25.13,25.13,0,0,0,6-3S32.79,4.93,30.49,6.91Z"/></g></g></svg>