<svg xmlns="http://www.w3.org/2000/svg" xmlns:xlink="http://www.w3.org/1999/xlink" viewBox="0 0 23.66 23.41"><defs><style>.cls-1{fill:#f5ea0f;}.cls-2{fill:url(#Безымянный_градиент_5);}.cls-3{fill:url(#Безымянный_градиент_5-2);}.cls-4{fill:#8ac440;}.cls-5{fill:url(#Безымянный_градиент_6);}</style><linearGradient id="Безымянный_градиент_5" x1="231.97" y1="903.26" x2="236.67" y2="903.26" gradientTransform="matrix(0.71, 0.71, 0.71, -0.71, -802.5, 493.8)" gradientUnits="userSpaceOnUse"><stop offset="0" stop-color="#fff"/><stop offset="1"/></linearGradient><linearGradient id="Безымянный_градиент_5-2" x1="231.97" y1="928.13" x2="236.67" y2="928.13" xlink:href="#Безымянный_градиент_5"/><linearGradient id="Безымянный_градиент_6" x1="231.8" y1="914.78" x2="236.84" y2="914.78" gradientTransform="matrix(0.71, 0.71, 0.71, -0.71, -802.5, 493.8)" gradientUnits="userSpaceOnUse"><stop offset="0" stop-color="#fff"/><stop offset="0.13" stop-color="#fbfbfb" stop-opacity="0.93"/><stop offset="0.26" stop-color="#f0f0f0" stop-opacity="0.87"/><stop offset="0.38" stop-color="#ddd" stop-opacity="0.81"/><stop offset="0.51" stop-color="#c2c2c2" stop-opacity="0.75"/><stop offset="0.63" stop-color="#9f9f9f" stop-opacity="0.69"/><stop offset="0.75" stop-color="#757575" stop-opacity="0.63"/><stop offset="0.87" stop-color="#434343" stop-opacity="0.57"/><stop offset="0.98" stop-color="#0a0a0a" stop-opacity="0.51"/><stop offset="1" stop-opacity="0.5"/></linearGradient></defs><title>Ресурс 11</title><g id="Слой_2" data-name="Слой 2"><g id="Layer_1" data-name="Layer 1"><path class="cls-1" d="M20.93,1.59l1,1,1.17-1.17S23.76.17,23.65,0s-1.44.31-1.44.31Z"/><polygon class="cls-2" points="3.31 23.41 0 20.09 0.99 19.1 4.31 22.42 3.31 23.41"/><polygon class="cls-3" points="19.66 7.08 16.35 3.76 20.91 1.33 22.19 2.62 19.66 7.08"/><rect class="cls-4" x="-0.63" y="10.59" width="21.84" height="5.04" transform="translate(-6.26 11.11) rotate(-44.95)"/><polygon class="cls-5" points="4.36 22.61 0.8 19.05 16.25 3.61 19.81 7.18 4.36 22.61"/></g></g></svg>