<svg xmlns="http://www.w3.org/2000/svg" xmlns:xlink="http://www.w3.org/1999/xlink" viewBox="0 0 28.71 27.72"><defs><style>.cls-1{fill:#f5ea0f;}.cls-2{fill:url(#Безымянный_градиент_2);}.cls-3{fill:url(#Безымянный_градиент_2-2);}.cls-4{fill:#8ac440;}.cls-5{fill:url(#Безымянный_градиент_3);}</style><linearGradient id="Безымянный_градиент_2" x1="394.05" y1="930.29" x2="403.95" y2="930.29" gradientTransform="matrix(0.7, 0.71, 0.71, -0.7, -918.7, 374.05)" gradientUnits="userSpaceOnUse"><stop offset="0" stop-color="#fff"/><stop offset="1"/></linearGradient><linearGradient id="Безымянный_градиент_2-2" x1="394.01" y1="902.75" x2="403.92" y2="902.75" xlink:href="#Безымянный_градиент_2"/><linearGradient id="Безымянный_градиент_3" x1="393.65" y1="914.9" x2="404.28" y2="914.9" gradientTransform="matrix(0.7, 0.71, 0.71, -0.7, -918.7, 374.05)" gradientUnits="userSpaceOnUse"><stop offset="0" stop-color="#fff"/><stop offset="0.13" stop-color="#fbfbfb" stop-opacity="0.93"/><stop offset="0.26" stop-color="#f0f0f0" stop-opacity="0.87"/><stop offset="0.38" stop-color="#ddd" stop-opacity="0.81"/><stop offset="0.51" stop-color="#c2c2c2" stop-opacity="0.75"/><stop offset="0.63" stop-color="#9f9f9f" stop-opacity="0.69"/><stop offset="0.75" stop-color="#757575" stop-opacity="0.63"/><stop offset="0.87" stop-color="#434343" stop-opacity="0.57"/><stop offset="0.98" stop-color="#0a0a0a" stop-opacity="0.51"/><stop offset="1" stop-opacity="0.5"/></linearGradient></defs><title>Ресурс 12</title><g id="Слой_2" data-name="Слой 2"><g id="Layer_1" data-name="Layer 1"><polygon class="cls-1" points="25.66 0.89 27.07 2.32 28.7 0.71 26.55 0 25.66 0.89"/><path class="cls-2" d="M24.32,10.63l-7-7,1.05-1a15.35,15.35,0,0,0,1.88.67c1.84.24,5.24-2.5,5.24-2.5l1.71,1.74a9.47,9.47,0,0,0-2.63,5.38,5.39,5.39,0,0,0,.76,1.76Z"/><polygon class="cls-3" points="6.96 27.72 0 20.67 1.05 19.64 8.01 26.69 6.96 27.72"/><rect class="cls-4" x="1.14" y="9.82" width="23.05" height="10.64" transform="translate(-6.99 13.26) rotate(-44.64)"/><polygon class="cls-5" points="8.19 27.02 0.72 19.45 17.12 3.26 24.59 10.83 8.19 27.02"/></g></g></svg>