<svg xmlns="http://www.w3.org/2000/svg" viewBox="0 0 28.98 25.67"><defs><style>.cls-1{fill:#29a8e0;}.cls-2{fill:#ea2026;}.cls-3{fill:#0872b8;}.cls-4{fill:#bf272d;}</style></defs><title>Ресурс 13</title><g id="Слой_2" data-name="Слой 2"><g id="Layer_1" data-name="Layer 1"><path class="cls-1" d="M1.28,14.41a2,2,0,0,0-.38,2.2l4.66,6.82a1.75,1.75,0,0,0,2.09.31l10.2-7L11.48,7.44Z"/><path class="cls-2" d="M28.52,7.74,23.86.92C23.48.37,22.74-.26,22.19.11L11.48,7.44l6.37,9.33L28.57,9.44C29.12,9.06,28.9,8.28,28.52,7.74Z"/><path class="cls-3" d="M8.74,22.45s-1.11.66-1.58.48a4.14,4.14,0,0,1-1.07-.78L1,14.72,0,17.78,5.07,25.2a2.29,2.29,0,0,0,1.08.47,2.67,2.67,0,0,0,1.17-.27l10.36-7.07,0-1.93Z"/><polygon class="cls-4" points="28.98 8.72 17.66 16.4 17.68 18.32 27.95 11.3 28.98 8.72"/></g></g></svg>