<svg xmlns="http://www.w3.org/2000/svg" xmlns:xlink="http://www.w3.org/1999/xlink" viewBox="0 0 27.62 27.02"><defs><style>.cls-1{fill:url(#Безымянный_градиент_23);}.cls-2{fill:url(#Безымянный_градиент_24);}.cls-3{fill:#f9ae3a;}</style><linearGradient id="Безымянный_градиент_23" x1="259.15" y1="859.47" x2="278.32" y2="859.47" gradientTransform="matrix(0.71, 0.71, 0.71, -0.71, -786.29, 432.02)" gradientUnits="userSpaceOnUse"><stop offset="0" stop-color="#fff"/><stop offset="0.14" stop-color="#fbfbfb" stop-opacity="0.93"/><stop offset="0.27" stop-color="#f1f1f1" stop-opacity="0.86"/><stop offset="0.39" stop-color="#dedede" stop-opacity="0.8"/><stop offset="0.51" stop-color="#c5c5c5" stop-opacity="0.74"/><stop offset="0.63" stop-color="#a3a3a3" stop-opacity="0.69"/><stop offset="0.74" stop-color="#7b7b7b" stop-opacity="0.63"/><stop offset="0.85" stop-color="#4a4a4a" stop-opacity="0.57"/><stop offset="0.96" stop-color="#141414" stop-opacity="0.52"/><stop offset="1" stop-opacity="0.5"/></linearGradient><linearGradient id="Безымянный_градиент_24" x1="-2042.08" y1="641.4" x2="-2022.91" y2="641.4" gradientTransform="matrix(-0.71, -0.71, -0.71, 0.71, -964.98, -1883.61)" gradientUnits="userSpaceOnUse"><stop offset="0" stop-color="#fff"/><stop offset="0.14" stop-color="#fbfbfb"/><stop offset="0.27" stop-color="#f1f1f1"/><stop offset="0.39" stop-color="#dedede"/><stop offset="0.51" stop-color="#c5c5c5"/><stop offset="0.63" stop-color="#a3a3a3"/><stop offset="0.74" stop-color="#7b7b7b"/><stop offset="0.85" stop-color="#4a4a4a"/><stop offset="0.96" stop-color="#141414"/><stop offset="1"/></linearGradient></defs><title>Ресурс 3</title><g id="Слой_2" data-name="Слой 2"><g id="Layer_1" data-name="Layer 1"><path class="cls-1" d="M13.6,25.73S9.7,27,4.31,21.6c-5-5-4.27-9.43-4.27-9.43L11.91.31,25.46,13.86Z"/><path class="cls-2" d="M11.89.33c1.17-1.18,5.16.9,8.9,4.65s5.83,7.73,4.65,8.9-5.16-.9-8.91-4.64S10.71,1.5,11.89.33Z"/><path class="cls-3" d="M16.53,9.24s5.69,5.95,8.5,5-1-5.3-1-5.3Z"/><path class="cls-3" d="M20.56,12.72s2.32,5.63,2.32,7.45a15.8,15.8,0,0,1-.5,4.8c-.75,1.34.5,2.32,3.14,2S28,25.3,26.68,24.64s-1.82-2.82-2.15-5.13S26,13.33,26,13.33Z"/></g></g></svg>