<svg xmlns="http://www.w3.org/2000/svg" xmlns:xlink="http://www.w3.org/1999/xlink" viewBox="0 0 26.85 27.34"><defs><style>.cls-1{fill:#f9ae3a;}.cls-2{fill:url(#Безымянный_градиент_22);}.cls-3{fill:#f9ff08;}</style><linearGradient id="Безымянный_градиент_22" x1="-714.96" y1="-864.25" x2="-714.96" y2="-870.85" gradientTransform="matrix(1.17, -1.2, -0.26, -0.25, 624.75, -1059.85)" gradientUnits="userSpaceOnUse"><stop offset="0" stop-color="#fff"/><stop offset="0.14" stop-color="#fbfbfb" stop-opacity="0.93"/><stop offset="0.27" stop-color="#f1f1f1" stop-opacity="0.86"/><stop offset="0.39" stop-color="#dedede" stop-opacity="0.8"/><stop offset="0.51" stop-color="#c5c5c5" stop-opacity="0.74"/><stop offset="0.63" stop-color="#a3a3a3" stop-opacity="0.69"/><stop offset="0.74" stop-color="#7b7b7b" stop-opacity="0.63"/><stop offset="0.85" stop-color="#4a4a4a" stop-opacity="0.57"/><stop offset="0.96" stop-color="#141414" stop-opacity="0.52"/><stop offset="1" stop-opacity="0.5"/></linearGradient></defs><title>Ресурс 4</title><g id="Слой_2" data-name="Слой 2"><g id="Layer_1" data-name="Layer 1"><path class="cls-1" d="M19.38,8.83c.11.11-.21.61-.71,1.13L2.44,26.58c-.51.52-1,.85-1.12.74L0,26.05c-.11-.11.21-.62.71-1.14L17,8.3c.5-.52,1-.85,1.11-.74Z"/><path class="cls-2" d="M19.38,8.83c.11.11-.21.61-.71,1.13L2.44,26.58c-.51.52-1,.85-1.12.74L0,26.05c-.11-.11.21-.62.71-1.14L17,8.3c.5-.52,1-.85,1.11-.74Z"/><polygon class="cls-3" points="25.39 0.98 24.11 5.19 26.85 8.63 22.45 8.72 20.02 12.39 18.58 8.23 14.34 7.06 17.85 4.4 17.65 0 21.26 2.52 25.39 0.98"/></g></g></svg>