<svg xmlns="http://www.w3.org/2000/svg" xmlns:xlink="http://www.w3.org/1999/xlink" viewBox="0 0 27.21 27.18"><defs><style>.cls-1{fill:#ea2026;}.cls-2{opacity:0.5;}.cls-2,.cls-3{isolation:isolate;}.cls-3{opacity:0.2;}.cls-4{fill:#c3996c;}.cls-5{fill:url(#Безымянный_градиент_21);}.cls-6{fill:url(#Безымянный_градиент_21-2);}</style><linearGradient id="Безымянный_градиент_21" x1="578.67" y1="473.41" x2="586.97" y2="473.41" gradientTransform="matrix(0.71, 0.7, 0.7, -0.71, -726.89, -64.16)" gradientUnits="userSpaceOnUse"><stop offset="0" stop-color="#fff"/><stop offset="0.13" stop-color="#fbfbfb" stop-opacity="0.93"/><stop offset="0.26" stop-color="#f0f0f0" stop-opacity="0.87"/><stop offset="0.38" stop-color="#ddd" stop-opacity="0.81"/><stop offset="0.51" stop-color="#c2c2c2" stop-opacity="0.75"/><stop offset="0.63" stop-color="#9f9f9f" stop-opacity="0.69"/><stop offset="0.75" stop-color="#757575" stop-opacity="0.63"/><stop offset="0.87" stop-color="#434343" stop-opacity="0.57"/><stop offset="0.98" stop-color="#0a0a0a" stop-opacity="0.51"/><stop offset="1" stop-opacity="0.5"/></linearGradient><linearGradient id="Безымянный_градиент_21-2" x1="-521.68" y1="816.87" x2="-525.87" y2="816.87" gradientTransform="matrix(-0.71, -0.71, -0.71, 0.71, 232.48, -946.04)" xlink:href="#Безымянный_градиент_21"/></defs><title>Ресурс 5</title><g id="Слой_2" data-name="Слой 2"><g id="Layer_1" data-name="Layer 1"><polygon class="cls-1" points="5.92 27.17 3.13 26.46 19.32 10.28 22.08 11.01 5.92 27.17"/><polygon class="cls-1" points="0 21.37 0.79 24.12 16.88 8.02 16.09 5.28 0 21.37"/><rect class="cls-1" x="-1.35" y="15.6" width="22.71" height="3.35" transform="translate(-9.28 12.13) rotate(-45)"/><polygon class="cls-2" points="5.93 27.18 3.14 26.47 19.32 10.28 22.09 11.02 5.93 27.18"/><rect class="cls-3" x="-1.34" y="15.6" width="22.71" height="3.35" transform="translate(-9.29 12.14) rotate(-45)"/><polygon class="cls-4" points="21.83 2.39 16.06 5.31 16.83 8.05 19.24 10.46 22.04 11.06 24.77 5.33 21.83 2.39"/><polygon class="cls-5" points="21.83 2.39 16.06 5.31 16.83 8.05 19.24 10.46 22.04 11.06 24.77 5.33 21.83 2.39"/><polygon class="cls-1" points="24.77 5.36 21.8 2.4 27.21 0 24.77 5.36"/><polygon class="cls-6" points="24.77 5.36 21.8 2.4 27.21 0 24.77 5.36"/></g></g></svg>