<svg xmlns="http://www.w3.org/2000/svg" viewBox="0 0 30.31 20.7"><defs><style>.cls-1{fill:#5dac25;}</style></defs><title>Ресурс 6</title><g id="Слой_2" data-name="Слой 2"><g id="Layer_1" data-name="Layer 1"><path class="cls-1" d="M24.67,7.13c1.45,2.45-.59,6-3.55,6-1.33,0-2.66-.07-4-.16a8.73,8.73,0,0,0-6.73,2.14,8.13,8.13,0,0,0-1.59,2.31A5.36,5.36,0,0,1,5,20.61,4.21,4.21,0,0,1,.3,18.12a4.11,4.11,0,0,1,1.46-4.88c1.1-.75,2.28-1.38,3.42-2.06A17.35,17.35,0,0,0,9.81,7.23c1.18-1.4,2.32-2.9,4.12-3.53a9.61,9.61,0,0,1,3.35-.59C20,3.19,23.51,5.17,24.67,7.13Z"/><path class="cls-1" d="M27.21,6.25c.41-.17.7-.41.95-.38a3.57,3.57,0,0,1,1.76.47,1.24,1.24,0,0,1-.05,1.84,5,5,0,0,1-2,1.32A1.79,1.79,0,0,1,26.29,9a2.21,2.21,0,0,1,0-1.71C26.47,6.83,27,6.52,27.21,6.25Z"/><path class="cls-1" d="M25.36,3.51c.91-.55,1.81-.49,2.21.13a1.63,1.63,0,0,1-.71,2.13,2.88,2.88,0,0,1-.38.22,1.45,1.45,0,0,1-1.92-.29A1.52,1.52,0,0,1,25,3.79,4.52,4.52,0,0,1,25.36,3.51Z"/><path class="cls-1" d="M24,4A1.37,1.37,0,0,1,22,3.66a1.56,1.56,0,0,1,.9-2,1.37,1.37,0,0,1,1.88.27A1.57,1.57,0,0,1,24,4Z"/><path class="cls-1" d="M20,.63a1.33,1.33,0,0,1,1.9.22,1.56,1.56,0,0,1-.75,1.89,1.39,1.39,0,0,1-1.91-.25A1.47,1.47,0,0,1,20,.63Z"/><path class="cls-1" d="M17.93,2.19a1.14,1.14,0,0,1-1.64-.25A1.26,1.26,0,0,1,17,.25c.6-.33,1.19-.42,1.63.25A1.26,1.26,0,0,1,17.93,2.19Z"/></g></g></svg>