<svg xmlns="http://www.w3.org/2000/svg" xmlns:xlink="http://www.w3.org/1999/xlink" viewBox="0 0 31.52 31.73"><defs><style>.cls-1{fill:url(#Безымянный_градиент_17);}.cls-2{fill:#f9ae3a;}.cls-3{fill:#c3996c;}.cls-4{fill:url(#Безымянный_градиент_18);}.cls-5{fill:url(#Безымянный_градиент_19);}</style><linearGradient id="Безымянный_градиент_17" x1="415.16" y1="225.94" x2="433.46" y2="225.94" gradientTransform="matrix(0.71, 0.71, 0.71, -0.71, -451.5, -128.27)" gradientUnits="userSpaceOnUse"><stop offset="0" stop-color="#fff"/><stop offset="1"/></linearGradient><linearGradient id="Безымянный_градиент_18" x1="432.17" y1="238.29" x2="432.17" y2="226.64" gradientTransform="matrix(0.71, 0.71, 0.71, -0.71, -451.5, -128.27)" gradientUnits="userSpaceOnUse"><stop offset="0" stop-color="#fff"/><stop offset="0.14" stop-color="#fbfbfb" stop-opacity="0.93"/><stop offset="0.27" stop-color="#f1f1f1" stop-opacity="0.86"/><stop offset="0.39" stop-color="#dedede" stop-opacity="0.8"/><stop offset="0.51" stop-color="#c5c5c5" stop-opacity="0.74"/><stop offset="0.63" stop-color="#a3a3a3" stop-opacity="0.69"/><stop offset="0.74" stop-color="#7b7b7b" stop-opacity="0.63"/><stop offset="0.85" stop-color="#4a4a4a" stop-opacity="0.57"/><stop offset="0.96" stop-color="#141414" stop-opacity="0.52"/><stop offset="1" stop-opacity="0.5"/></linearGradient><linearGradient id="Безымянный_градиент_19" x1="430.54" y1="215.01" x2="434.42" y2="215.01" gradientTransform="matrix(0.71, 0.71, 0.71, -0.71, -451.5, -128.27)" gradientUnits="userSpaceOnUse"><stop offset="0" stop-color="#fff"/><stop offset="0.13" stop-color="#fbfbfb" stop-opacity="0.93"/><stop offset="0.26" stop-color="#f0f0f0" stop-opacity="0.87"/><stop offset="0.38" stop-color="#ddd" stop-opacity="0.81"/><stop offset="0.51" stop-color="#c2c2c2" stop-opacity="0.75"/><stop offset="0.63" stop-color="#9f9f9f" stop-opacity="0.69"/><stop offset="0.75" stop-color="#757575" stop-opacity="0.63"/><stop offset="0.87" stop-color="#434343" stop-opacity="0.57"/><stop offset="0.98" stop-color="#0a0a0a" stop-opacity="0.51"/><stop offset="1" stop-opacity="0.5"/></linearGradient></defs><title>Ресурс 7</title><g id="Слой_2" data-name="Слой 2"><g id="Layer_1" data-name="Layer 1"><path class="cls-1" d="M8.75,23.22a1,1,0,0,1,0-1.38l2.4-2.4L.29,8.56a1,1,0,0,1,0-1.37l6-6a1,1,0,0,1,1.38,0L9.7,3.28A1,1,0,0,1,8.32,4.65L7,3.28l-4.6,4.6L13.21,18.76a1,1,0,0,1,0,1.37l-3.09,3.09A1,1,0,0,1,8.75,23.22Z"/><path class="cls-2" d="M24.82,25.93a1.39,1.39,0,0,1-1.95,0L5.6,8.64a1.39,1.39,0,0,1,0-1.95L11.9.4a1.38,1.38,0,0,1,1.94,0L31.11,17.69a1.36,1.36,0,0,1,0,1.94Z"/><path class="cls-3" d="M.49,28.71c-.18.18-.29.58-.12.76l2.2,2.2c.17.17.49,0,.67-.21l9.17-9.17L9.67,19.54Z"/><path class="cls-4" d="M24.82,25.93a1.39,1.39,0,0,1-1.95,0L5.6,8.64a1.39,1.39,0,0,1,0-1.95L11.9.4a1.38,1.38,0,0,1,1.94,0L31.11,17.69a1.36,1.36,0,0,1,0,1.94Z"/><path class="cls-5" d="M.49,28.71c-.18.18-.29.58-.12.76l2.2,2.2c.17.17.49,0,.67-.21l9.17-9.17L9.67,19.54Z"/></g></g></svg>