<svg xmlns="http://www.w3.org/2000/svg" xmlns:xlink="http://www.w3.org/1999/xlink" viewBox="0 0 40.4 31.66"><defs><style>.cls-1{fill:#2b82f9;}.cls-2{fill:#fff;}.cls-3{fill:url(#Безымянный_градиент_16);}.cls-4{fill:url(#Безымянный_градиент_16-2);}</style><linearGradient id="Безымянный_градиент_16" x1="-1709.33" y1="1000.1" x2="-1688.63" y2="1000.1" gradientTransform="translate(-1671.56 -1004.46) rotate(-118.25)" gradientUnits="userSpaceOnUse"><stop offset="0" stop-color="#fff"/><stop offset="0.13" stop-color="#fbfbfb" stop-opacity="0.93"/><stop offset="0.26" stop-color="#f0f0f0" stop-opacity="0.87"/><stop offset="0.38" stop-color="#ddd" stop-opacity="0.81"/><stop offset="0.51" stop-color="#c2c2c2" stop-opacity="0.75"/><stop offset="0.63" stop-color="#9f9f9f" stop-opacity="0.69"/><stop offset="0.75" stop-color="#757575" stop-opacity="0.63"/><stop offset="0.87" stop-color="#434343" stop-opacity="0.57"/><stop offset="0.98" stop-color="#0a0a0a" stop-opacity="0.51"/><stop offset="1" stop-opacity="0.5"/></linearGradient><linearGradient id="Безымянный_градиент_16-2" x1="-1693.83" y1="629.84" x2="-1688.38" y2="629.84" gradientTransform="matrix(-0.72, -0.7, 0.7, -0.72, -1626.58, -719.24)" xlink:href="#Безымянный_градиент_16"/></defs><title>Ресурс 8</title><g id="Слой_2" data-name="Слой 2"><g id="Layer_1" data-name="Layer 1"><path class="cls-1" d="M17.62,25.64c1.73-1.79,3.47-3.58,5.2-5.38a5.43,5.43,0,0,0,.58-.69,8.2,8.2,0,0,0-1.5-11.3,7.92,7.92,0,0,0-3.11-1.55,8.11,8.11,0,0,0-4.45.12,7.85,7.85,0,0,0-3.32,2Q5.71,14.31.41,19.78a1.4,1.4,0,0,0,0,2c1.67,1.6,3.32,3.21,5,4.82s3.19,3.08,4.78,4.64a1.41,1.41,0,0,0,2,0C14,29.34,15.82,27.49,17.62,25.64ZM21.51,5.9l3.91,3.78,1.87-1.94a1.46,1.46,0,0,1,0-1.91,1.39,1.39,0,0,1,.8-.44,1.45,1.45,0,0,1,1.18.34c.64-.65,1.26-1.3,1.89-2L27.22,0ZM34.25,16.36a1.36,1.36,0,1,0,.06,1.91A1.34,1.34,0,0,0,34.25,16.36Zm-.07-5.84a1.36,1.36,0,1,0,1.91-1.95,1.4,1.4,0,0,0-1.92,0A1.36,1.36,0,0,0,34.18,10.52Zm1.07,4.86a1.36,1.36,0,0,0,2-.09,1.37,1.37,0,1,0-2,.09ZM29.33,9.64a1.33,1.33,0,0,0,1.9,0,1.36,1.36,0,1,0-1.9,0Zm1,4.81a1.36,1.36,0,1,0,0-1.91A1.36,1.36,0,0,0,30.35,14.45Z"/><path class="cls-2" d="M40.11,10.56a1.56,1.56,0,0,1,.29.91,1.32,1.32,0,0,1-.84,1.21,1.28,1.28,0,0,1-1.4-.22,1.36,1.36,0,0,1,1.65-2.15l.07,0Z"/><path class="cls-1" d="M17.62,25.64c-1.8,1.85-3.61,3.7-5.39,5.57a1.41,1.41,0,0,1-2,0C8.61,29.68,7,28.14,5.42,26.6s-3.31-3.22-5-4.82a1.4,1.4,0,0,1,0-2Q5.72,14.32,11,8.83a7.85,7.85,0,0,1,3.32-2,8.21,8.21,0,0,1,4.45-.12A7.92,7.92,0,0,1,21.9,8.27a8.23,8.23,0,0,1,1.5,11.3,4.82,4.82,0,0,1-.58.69C21.09,22.06,19.35,23.85,17.62,25.64Z"/><path class="cls-1" d="M21.51,5.9,27.22,0l3.91,3.78c-.63.65-1.25,1.3-1.89,2a1.45,1.45,0,0,0-1.18-.34,1.33,1.33,0,0,0-.8.44,1.46,1.46,0,0,0,0,1.91L25.42,9.68Z"/><path class="cls-2" d="M34.25,16.36a1.36,1.36,0,1,1-1.88,2,1.36,1.36,0,0,1,1.88-2Z"/><path class="cls-2" d="M34.18,10.52a1.36,1.36,0,1,1,1.94,0A1.36,1.36,0,0,1,34.18,10.52Z"/><path class="cls-2" d="M35.25,15.38a1.36,1.36,0,1,1,2-.09A1.37,1.37,0,0,1,35.25,15.38Z"/><path class="cls-2" d="M29.33,9.64a1.36,1.36,0,1,1,1.9,0A1.33,1.33,0,0,1,29.33,9.64Z"/><path class="cls-2" d="M30.35,14.45a1.36,1.36,0,1,1,1.94,0A1.35,1.35,0,0,1,30.35,14.45Z"/><path class="cls-3" d="M17.62,25.64c-1.8,1.85-3.61,3.7-5.39,5.57a1.41,1.41,0,0,1-2,0C8.61,29.68,7,28.14,5.42,26.6s-3.31-3.22-5-4.82a1.4,1.4,0,0,1,0-2Q5.72,14.32,11,8.83a7.85,7.85,0,0,1,3.32-2,8.21,8.21,0,0,1,4.45-.12A7.92,7.92,0,0,1,21.9,8.27a8.23,8.23,0,0,1,1.5,11.3,4.82,4.82,0,0,1-.58.69C21.09,22.06,19.35,23.85,17.62,25.64Z"/><path class="cls-4" d="M21.51,5.9,27.22,0l3.91,3.78c-.63.65-1.25,1.3-1.89,2a1.45,1.45,0,0,0-1.18-.34,1.33,1.33,0,0,0-.8.44,1.46,1.46,0,0,0,0,1.91L25.42,9.68Z"/></g></g></svg>