<svg xmlns="http://www.w3.org/2000/svg" xmlns:xlink="http://www.w3.org/1999/xlink" viewBox="0 0 31.4 31.48"><defs><style>.cls-1{fill:#ea2026;}.cls-2{fill:#c3996c;}.cls-3{fill:url(#Безымянный_градиент_13);}.cls-4{fill:url(#Безымянный_градиент_14);}</style><linearGradient id="Безымянный_градиент_13" x1="-333.91" y1="1668.7" x2="-318.41" y2="1668.7" gradientTransform="matrix(-1, 0, 0, 1, -316.73, -1653.19)" gradientUnits="userSpaceOnUse"><stop offset="0" stop-color="#fff"/><stop offset="1"/></linearGradient><linearGradient id="Безымянный_градиент_14" x1="-330.16" y1="1675.46" x2="-308.98" y2="1675.46" gradientTransform="matrix(-1, 0, 0, 1, -316.73, -1653.19)" gradientUnits="userSpaceOnUse"><stop offset="0" stop-color="#fff"/><stop offset="0.13" stop-color="#fbfbfb" stop-opacity="0.93"/><stop offset="0.26" stop-color="#f0f0f0" stop-opacity="0.87"/><stop offset="0.38" stop-color="#ddd" stop-opacity="0.81"/><stop offset="0.51" stop-color="#c2c2c2" stop-opacity="0.75"/><stop offset="0.63" stop-color="#9f9f9f" stop-opacity="0.69"/><stop offset="0.75" stop-color="#757575" stop-opacity="0.63"/><stop offset="0.87" stop-color="#434343" stop-opacity="0.57"/><stop offset="0.98" stop-color="#0a0a0a" stop-opacity="0.51"/><stop offset="1" stop-opacity="0.5"/></linearGradient></defs><title>Ресурс 9</title><g id="Слой_2" data-name="Слой 2"><g id="Layer_1" data-name="Layer 1"><path class="cls-1" d="M17.73,1.43c-1.81,1.67-3.58,3.38-5.35,5.06L24.84,18.57C27,16.39,29.24,14.24,31.4,12l-.24-.24-.92.63c0-.63,1.06-1.13.2-1.82L28.66,12c1.22-2.4,1.22-2.4.44-3.05l-3.45,4-.29-.19a8.91,8.91,0,0,0,1.69-5.38,2,2,0,0,0-.49-1.22c-1.62-1.53-3.27-3-5-4.49,0,0-1-1.44-1.83-1.59S17.73,1.43,17.73,1.43Z"/><path class="cls-2" d="M21.15,21.69a2.33,2.33,0,0,1-2.22.83,14.49,14.49,0,0,1-2.11-.31,5.31,5.31,0,0,0-5.11,1.16,28.44,28.44,0,0,0-2.78,2.71c-1.42,1.5-2.76,3.09-4.23,4.54-1,1-2.4.93-3.69.75a1.58,1.58,0,0,1-.94-1.14A4.55,4.55,0,0,1,1.4,26c1.39-1.27,2.87-2.45,4.19-3.79a26.5,26.5,0,0,0,3-3.62,4.35,4.35,0,0,0,.55-3.74c-.19-.69-.24-1.41-.37-2.1a2.6,2.6,0,0,1,.73-2.58Z"/><path class="cls-3" d="M9.34,9.79c0-.27.25-.46.42-.63.83-.87,1.7-1.71,2.53-2.58.45-.47.81-.38,1.24,0q5.46,5.49,11,11c.46.45.54.82,0,1.3-.84.82-1.65,1.67-2.46,2.52a.76.76,0,0,1-1.26,0Q15.28,15.87,9.73,10.33C9.59,10.19,9.34,10,9.34,9.79Z"/><path class="cls-4" d="M21.15,21.69a2.33,2.33,0,0,1-2.22.83,14.49,14.49,0,0,1-2.11-.31,5.31,5.31,0,0,0-5.11,1.16,28.44,28.44,0,0,0-2.78,2.71c-1.42,1.5-2.76,3.09-4.23,4.54-1,1-2.4.93-3.69.75a1.58,1.58,0,0,1-.94-1.14A4.55,4.55,0,0,1,1.4,26c1.39-1.27,2.87-2.45,4.19-3.79a26.5,26.5,0,0,0,3-3.62,4.35,4.35,0,0,0,.55-3.74c-.19-.69-.24-1.41-.37-2.1a2.6,2.6,0,0,1,.73-2.58Z"/></g></g></svg>