<svg xmlns="http://www.w3.org/2000/svg" viewBox="0 0 31.59 31.59"><defs><style>.cls-1{fill:#ea2026;}.cls-2{fill:none;stroke:#ea2026;stroke-miterlimit:10;}</style></defs><title>c</title><g id="Слой_2" data-name="Слой 2"><g id="Layer_1" data-name="Layer 1"><path class="cls-1" d="M24.76,27.58c.16.15.52.26.67.1l1.93-1.93c.16-.15,0-.44-.18-.59L19.1,17.08,16.68,19.5Z"/><path class="cls-1" d="M19,19.39a7.85,7.85,0,1,1,0-11.1A7.85,7.85,0,0,1,19,19.39ZM9.4,9.8a5.71,5.71,0,1,0,8.07,0A5.7,5.7,0,0,0,9.4,9.8Z"/><path class="cls-1" d="M14,16.55a.19.19,0,0,1-.19.18h-1a.18.18,0,0,1-.18-.18V10.78a.18.18,0,0,1,.18-.18h1a.19.19,0,0,1,.19.18Z"/><path class="cls-1" d="M16.39,14.17a.19.19,0,0,1-.19.18H10.44a.18.18,0,0,1-.18-.18v-1a.18.18,0,0,1,.18-.18H16.2a.19.19,0,0,1,.19.18v1Z"/><circle class="cls-2" cx="15.79" cy="15.79" r="15.29"/></g></g></svg>