<svg xmlns="http://www.w3.org/2000/svg" viewBox="0 0 31.59 31.59"><defs><style>.cls-1{fill:#919191;}.cls-2{fill:none;stroke:#919191;stroke-miterlimit:10;}</style></defs><title>b</title><g id="Слой_2" data-name="Слой 2"><g id="Layer_1" data-name="Layer 1"><path class="cls-1" d="M20.93,9.77l-2.25-2.3h-7v5.71h-.54a.64.64,0,0,0-.7.55v1.7h-1a.55.55,0,0,0-.55.54V22.9a.54.54,0,0,0,.55.55H23.19a.55.55,0,0,0,.55-.54V16a.55.55,0,0,0-.55-.54h-1v-1.7a.64.64,0,0,0-.7-.55h-.52ZM13.2,17.55a.32.32,0,0,1-.63,0,.32.32,0,0,1,.32-.32A.31.31,0,0,1,13.2,17.55Zm-1.93-.5a.52.52,0,1,1,0,1,.52.52,0,1,1,0-1Zm1.36-8.57h5.9v1.84h1.63v2.86H12.63Zm9.76,13.33a.63.63,0,0,1-.7.55H11.38a.64.64,0,0,1-.7-.55v-2a.63.63,0,0,1,.7-.54H21.69a.64.64,0,0,1,.7.55Z"/><circle class="cls-2" cx="15.79" cy="15.79" r="15.29"/></g></g></svg>