<svg xmlns="http://www.w3.org/2000/svg" viewBox="0 0 31.59 31.59"><defs><style>.cls-1{fill:none;}.cls-1,.cls-2{stroke:#919191;stroke-miterlimit:10;}.cls-2,.cls-3{fill:#919191;}.cls-2{stroke-width:0.25px;}</style></defs><title>a</title><g id="Слой_2" data-name="Слой 2"><g id="Layer_1" data-name="Layer 1"><path class="cls-1" d="M10.47,11.84H21.12c0,.52-.07,1-.12,1.54q-.36,3.63-.74,7.26c-.11,1.09-.21,2.18-.32,3.26a.86.86,0,0,1-.91.81c-2.09,0-4.17,0-6.25,0a.86.86,0,0,1-.91-.86c-.22-2.05-.48-4.09-.72-6.13s-.45-3.77-.68-5.65Z"/><circle class="cls-1" cx="15.79" cy="15.79" r="15.29"/><path class="cls-2" d="M16.26,22.2a.48.48,0,0,1-.47.48h0a.48.48,0,0,1-.47-.48V14.25a.47.47,0,0,1,.47-.47h0a.47.47,0,0,1,.47.47Z"/><path class="cls-2" d="M18.32,22.23a.47.47,0,0,1-.51.43h0a.47.47,0,0,1-.43-.51L18,14.23a.47.47,0,0,1,.51-.43h0a.47.47,0,0,1,.43.51Z"/><path class="cls-2" d="M13.27,22.23a.47.47,0,0,0,.51.43h0a.47.47,0,0,0,.43-.51l-.66-7.92A.47.47,0,0,0,13,13.8h0a.47.47,0,0,0-.43.51Z"/><path class="cls-3" d="M20.15,7a.75.75,0,0,1,.88.53h0a.74.74,0,0,1-.31,1l-10,3.77a.73.73,0,0,1-.87-.53h0a.73.73,0,0,1,.3-1Z"/><path class="cls-3" d="M15.87,7.55a.73.73,0,0,1,.87.54h0a.72.72,0,0,1-.3,1L14.08,10a.74.74,0,0,1-.88-.53h0a.73.73,0,0,1,.31-1Z"/></g></g></svg>